<svg xmlns="http://www.w3.org/2000/svg" viewBox="0 0 800 500" width="800" height="500">
<style>
  text { font-family: -apple-system, BlinkMacSystemFont, "Segoe UI", Helvetica, Arial, sans-serif; }
</style>
<rect width="800" height="500" fill="white"/>
<text x="400.0" y="35" text-anchor="middle" font-size="20" font-weight="bold" fill="#1a1a1a">XBOW Benchmark — AI Pentest Agent Comparison</text>
<line x1="80" y1="400.0" x2="760" y2="400.0" stroke="#e0e0e0" stroke-width="1" stroke-dasharray="4,4"/>
<text x="70" y="404.0" text-anchor="end" font-size="12" fill="#666">0%</text>
<line x1="80" y1="366.0" x2="760" y2="366.0" stroke="#e0e0e0" stroke-width="1" stroke-dasharray="4,4"/>
<text x="70" y="370.0" text-anchor="end" font-size="12" fill="#666">10%</text>
<line x1="80" y1="332.0" x2="760" y2="332.0" stroke="#e0e0e0" stroke-width="1" stroke-dasharray="4,4"/>
<text x="70" y="336.0" text-anchor="end" font-size="12" fill="#666">20%</text>
<line x1="80" y1="298.0" x2="760" y2="298.0" stroke="#e0e0e0" stroke-width="1" stroke-dasharray="4,4"/>
<text x="70" y="302.0" text-anchor="end" font-size="12" fill="#666">30%</text>
<line x1="80" y1="264.0" x2="760" y2="264.0" stroke="#e0e0e0" stroke-width="1" stroke-dasharray="4,4"/>
<text x="70" y="268.0" text-anchor="end" font-size="12" fill="#666">40%</text>
<line x1="80" y1="230.0" x2="760" y2="230.0" stroke="#e0e0e0" stroke-width="1" stroke-dasharray="4,4"/>
<text x="70" y="234.0" text-anchor="end" font-size="12" fill="#666">50%</text>
<line x1="80" y1="196.0" x2="760" y2="196.0" stroke="#e0e0e0" stroke-width="1" stroke-dasharray="4,4"/>
<text x="70" y="200.0" text-anchor="end" font-size="12" fill="#666">60%</text>
<line x1="80" y1="162.0" x2="760" y2="162.0" stroke="#e0e0e0" stroke-width="1" stroke-dasharray="4,4"/>
<text x="70" y="166.0" text-anchor="end" font-size="12" fill="#666">70%</text>
<line x1="80" y1="128.0" x2="760" y2="128.0" stroke="#e0e0e0" stroke-width="1" stroke-dasharray="4,4"/>
<text x="70" y="132.0" text-anchor="end" font-size="12" fill="#666">80%</text>
<line x1="80" y1="94.0" x2="760" y2="94.0" stroke="#e0e0e0" stroke-width="1" stroke-dasharray="4,4"/>
<text x="70" y="98.0" text-anchor="end" font-size="12" fill="#666">90%</text>
<line x1="80" y1="60.0" x2="760" y2="60.0" stroke="#e0e0e0" stroke-width="1" stroke-dasharray="4,4"/>
<text x="70" y="64.0" text-anchor="end" font-size="12" fill="#666">100%</text>
<text x="15" y="230.0" text-anchor="middle" font-size="13" font-weight="bold" fill="#333" transform="rotate(-90, 15, 230.0)">Pass Rate (%)</text>
<rect x="110.0" y="86.18" width="132.5" height="313.82" fill="#1a73e8" rx="4" ry="4"/>
<text x="176.25" y="78.18" text-anchor="middle" font-size="16" font-weight="bold" fill="#1a1a1a">92.3%</text>
<text x="176.25" y="385" text-anchor="middle" font-size="11" font-weight="bold" fill="white">Black-Box</text>
<text x="176.25" y="420" text-anchor="middle" font-size="13" font-weight="bold" fill="#333">KinoSec AI</text>
<rect x="272.5" y="73.08999999999997" width="132.5" height="326.91" fill="#6c757d" rx="4" ry="4"/>
<text x="338.75" y="65.08999999999997" text-anchor="middle" font-size="16" font-weight="bold" fill="#1a1a1a">96.15%</text>
<text x="338.75" y="385" text-anchor="middle" font-size="11" font-weight="bold" fill="white">White-Box</text>
<text x="338.75" y="420" text-anchor="middle" font-size="13" font-weight="bold" fill="#333">Shannon AI</text>
<rect x="435.0" y="111.0" width="132.5" height="289.0" fill="#dc3545" rx="4" ry="4"/>
<text x="501.25" y="103.0" text-anchor="middle" font-size="16" font-weight="bold" fill="#1a1a1a">85.0%</text>
<text x="501.25" y="385" text-anchor="middle" font-size="11" font-weight="bold" fill="white">Black-Box</text>
<text x="501.25" y="420" text-anchor="middle" font-size="13" font-weight="bold" fill="#333">XBOW</text>
<rect x="597.5" y="111.0" width="132.5" height="289.0" fill="#28a745" rx="4" ry="4"/>
<text x="663.75" y="103.0" text-anchor="middle" font-size="16" font-weight="bold" fill="#1a1a1a">85.0%</text>
<text x="663.75" y="385" text-anchor="middle" font-size="11" font-weight="bold" fill="white">~40hrs Manual</text>
<text x="663.75" y="420" text-anchor="middle" font-size="13" font-weight="bold" fill="#333">Human Pentester</text>
<text x="400.0" y="485" text-anchor="middle" font-size="10" font-style="italic" fill="#888">XBOW Validation Benchmarks: 104 CTF-style web vulnerability challenges  |  Black-box = no source code access</text>
</svg>